<svg xmlns="http://www.w3.org/2000/svg" width="96" height="72" viewBox="0 0 96 72">
    <g fill="#000">
        <path d="M29.8 0c.333.223.256.644.295.99.09 1.091.256 2.23.385 3.37.166 1.586.102 3.32-.064 4.831-.334 2.948-.988 5.859-2.014 8.051-1.04 2.205-2.694 4.113-4.49 5.698-1.335 1.177-2.912 2.18-4.58 3.097-.436.235-1.206.793-1.796.372.128-.533.693-.595 1.052-.768.846-.421 1.809-1.04 2.565-1.635 2.297-1.821 4.016-4.348 5.196-7.271.77-1.908 1.385-4.212 1.54-6.714.153-2.44.282-5.302-.411-7.556-.488.223-.834.644-1.219.99-1.129 1.041-2.36 2.057-3.4 3.221-2.706 3.035-4.913 6.85-5.9 11.57-.5 2.39-.424 5.289.064 7.89.91 4.794 3.207 8.386 5.003 12.474.872 1.982 1.552 4.199 2.142 6.565.552 2.217.77 5.264.257 7.828.372-.235.628-.62.923-.954.847-.978 1.848-1.882 3.015-2.626.718-.458 1.59-.88 2.437-1.362.372-.21.744-.446 1.18-.706.321-.186.937-.595 1.373-.496.308.075.5.558.513.954.039.88-.333 1.672-.615 2.378-.295.756-.578 1.474-.77 2.23.308-.05.513-.322.731-.52 1.424-1.239 2.45-2.725 3.964-3.902.27-.21.629-.446.86-.186.205.223-.154.719-.347.991-.256.36-.487.632-.641.867-1.04 1.548-1.847 3.11-1.95 5.537-.026.557-.013 1.19.282 1.3.526.186 1.232-.222 1.604-.396.564-.272 1.116-.57 1.308-1.077.282-.768.36-1.561.642-2.255.474-1.189 1.36-2.613 2.334-3.493.398-.36 1.335-1.078 1.989-.929.218.05.18.062.282.31.487-4.075 2.348-7.098 4.387-9.872 1.488-2.02 3.297-3.79 5.324-5.45.308-.248.629-.509 1.026-.769.385-.26.898-.582 1.347-.557.552.533.372 1.585.257 2.415-.334 2.366-1.642 4.1-2.912 5.636-1.347 1.623-2.758 2.911-4.58 4.026-.616.372-1.462.694-1.886 1.239-.5.631-.59 1.858-.705 2.812-.436 3.43.308 6.527 2.142 8.076.654.545 1.45.99 2.527 1.053 1.052.05 2.053-.273 2.784-.768.731-.496 1.155-1.177 1.283-2.23.064-.508.064-1.003.128-1.61.052-.496.128-1.078-.064-1.549-.475-1.189-1.911-1.672-3.233-1.944-1.616-.335-3.168-.1-4.361.495-.206.1-.54.496-.86.434-.09-.013-.295-.199-.32-.31-.078-.372.564-.892.923-1.177 1.18-.916 2.566-1.783 3.977-2.353 1.514-.62 3.092-1.103 5.26-1.053.615.012 1.565.16 2.116.025.385-.087.821-.533 1.116-.867.642-.706 1.18-1.35 2.078-1.858.219-.124 1.09-.607 1.566-.372.192.087.295.347.32.62.141 1.188-.064 2.316-.282 3.245-.218.953-.616 1.783-.731 2.787.397-.1.68-.434.962-.682 1.398-1.288 1.834-3.58 3.207-4.954.27-.273.552-.508.898-.744.308-.21.654-.532 1.116-.433.128.495-.244.929-.449 1.325-.641 1.239-1.257 2.515-1.86 3.84-.385.855-.795 1.747-1.116 2.663-.334.93-.706 1.92-.642 2.998.668-.248 1.142-.78 1.604-1.239.937-.916 1.604-2.105 2.31-3.307.615-1.065 1.051-2.205 2.629-2.316.36.47.013.99-.192 1.387-.424.855-.757 1.734-1.117 2.663-.18.446-.423.966-.192 1.487.526.173 1.052-.223 1.475-.52.488-.347 1.078-.769 1.18-1.326.052-.26-.025-.545-.025-.83 0-1.846.32-3.642.667-5.227.218-.991.398-1.87.705-2.688.308-.83.706-1.56 1.027-2.378-1.078.123-1.706.532-2.527.99-.334.186-.667.397-1.09.645-.232.136-1.027.619-1.245.247-.27-.433.82-1.14 1.026-1.3 1.386-1.028 2.976-1.858 4.81-2.416.873-1.474 1.604-3.146 3.105-4.05.218-.136.488-.297.731-.458.218-.15.514-.41.834-.248 0 .88-.692 1.387-1.116 1.945-.449.594-.936 1.152-1.116 1.981.731 0 1.475-.235 2.245-.371 2.155-.384 4.952-.644 7.338-.21-.154.346-.552.581-.898.891-.295.273-.667.756-1.052.83-.295.062-.706-.025-1.09-.025-1.81 0-3.541.112-5.222.248-.808.062-1.565.111-2.142.372-.641.631-1.206 2.093-1.54 3.096-.358 1.066-.628 2.354-.795 3.431-.256 1.648-.308 4.1.129 5.76.154.558.32 1.313.77 1.363.397.037.897-.483 1.18-.706 1.064-.842 1.757-2.044 2.334-3.283.59-1.25.937-2.688 1.95-3.654.282-.272.86-.718 1.219-.532.577.31-.218 1.709-.346 1.981-.668 1.338-1.22 2.342-1.796 3.655-.27.619-.603 1.313-.54 2.043.847.335 1.027-.57 1.31-1.201.461-1.028.807-1.932 1.475-2.787.307-.384.667-.904 1.244-.904.295.012.526.198.577.371.116.397-.372.954-.539 1.264-.256.47-.461.78-.513 1.362.552-.062.937-.545 1.373-.892.86-.68 1.783-1.3 3.015-1.672.744-.223 2.283-.706 2.694.025.359.644-.206 1.746-.514 2.316-.372.694-.795 1.35-1.09 2.007-.295.644-.603 1.474-.834 2.254-.256.867-.616 2.44.103 3.06.513.446 1.462.52 2.309.495 1.757-.05 2.694-1.065 3.72-1.858.5-.384 1.103-.88 1.924-.743v.186c-.577.718-1.398 1.251-2.206 1.82-1.527 1.078-3.028 2.354-5.516 2.565-1.578.136-2.925-.458-3.04-2.007-.142-1.82.577-3.48 1.115-4.769.295-.718.642-1.325.988-1.944.347-.62.757-1.264.796-2.131-.475-.285-1.014-.025-1.437.124-2.13.743-3.361 2.502-4.747 4.087-.256.285-.539.583-.898.868-.243.185-.988.631-1.244.346-.167-.185.141-.52.064-.83-.68.075-1.668 1.029-2.373.744-.5-.21-.077-1.165-.064-1.673-.154-.037-.244.15-.347.248-.667.582-2.399 1.982-3.656 1.511-.705-.26-.68-1.214-.86-2.068-.448.05-.769.446-1.115.743-.321.285-.68.557-1.052.805-.719.496-1.706 1.078-2.656 1.053-.603-.012-.936-.396-.988-1.016-.41.087-.628.483-.923.744-.603.545-1.232.99-2.143 1.325-.77.285-1.693.483-1.757-.557-.051-.905.244-1.859.513-2.664.27-.817.667-1.548.924-2.254-.308.074-.513.47-.77.805-.256.335-.616.632-.795.93-.424.668-.59 1.498-1.027 2.192-.833 1.362-1.642 2.49-2.886 3.555-.27.235-.552.446-.898.706-.295.223-.68.619-1.026.594-.642-.05-.706-1.288-1.026-1.697-.911.706-1.527 1.648-2.528 2.354-.898.631-2.219 1.325-3.72 1.115-1.334-.199-2.18-1.152-2.912-1.982-.782-.892-1.373-1.87-1.668-3.159-1.385.867-2.45 2.019-3.848 2.936-.436.285-1 .644-1.668.52-.282-.198-.32-.644-.295-1.14-1.129.446-2.386 2.094-4.17 1.673-.397-.1-.833-.36-1.051-.768-.847-1.574.603-3.89.898-5.079-.475.05-.783.446-1.116.743-.36.31-.77.558-1.116.867-1.758 2.812-3.862 5.983-6.543 8.262-.82.706-1.86 1.734-3.297 1.635-1.577-.111-1.193-1.92-.923-3.22-.41.247-.629.681-.924 1.015-.898 1.004-1.988 1.883-2.976 2.85 4.439 3.158 11.802 4.384 19.255 3.493 1.668-.199 3.297-.583 4.837-.991 4.528-1.202 8.505-3.171 12.661-4.732 2.771-1.04 5.773-2.094 9.134-2.502 3.477-.421 7.569-.384 11.122 0 6.068.669 11.25 2.39 15.805 4.546.641.31 1.308.594 1.757 1.114-.333.124-.654.199-.987.31-.295.1-.68.322-.963.31-.243-.013-.692-.384-.962-.533-.962-.52-2.04-.941-3.04-1.362-1.398-.583-2.912-1.115-4.362-1.549-3.002-.892-6.593-1.412-10.057-1.796-5.645-.62-11.533.037-15.676 1.635-1.399.545-2.682 1.227-4.003 1.883-1.321.657-2.732 1.202-4.105 1.796-1.385.607-2.77 1.19-4.195 1.697-.731.26-1.488.458-2.245.706-.731.248-1.462.52-2.206.743-1.553.446-3.246.694-5.003.93-3.644.482-7.543.371-10.827-.372-2.759-.62-5.234-1.648-7.338-2.998-.218-.136-.667-.545-.898-.557-.5-.037-1.245.73-1.694 1.015-1.655 1.066-3.245 2.168-5.028 3.035-2.002.979-6.85 2.354-7.723-.706v-.495c.282-1.536 1.283-2.54 2.245-3.345 1.077-.904 2.09-1.585 3.49-2.13 2.231-.88 6.041-1.338 8.427-.335.347.149.63.335 1.027.397.718.124 1.5-.793 1.988-1.239 1.604-1.462 2.938-3.084 4.003-4.955.705-1.238 1.295-2.787 1.565-4.36.308-1.734.128-3.902-.129-5.512-.538-3.382-1.629-6.243-2.95-8.906-1.309-2.65-2.797-5.19-3.938-7.952-.59-1.425-1.078-2.911-1.283-4.608-.218-1.821-.026-3.716.23-5.475.488-3.37 1.566-6.441 2.887-8.98 2.053-3.94 4.823-7.061 8.21-9.712.526-.421 1.142-.793 1.796-1.202.488-.408 1.129-.966 1.86-1.102h.257zm20 38.189c-1.284 1.721-2.31 3.703-3.015 5.945 1.86-.805 3.476-2.056 4.643-3.617.86-1.14 1.617-2.564 1.925-4.211.102-.533.295-1.165.064-1.734h-.064c-.039.012-.064.05-.09.086-1.36.917-2.476 2.193-3.464 3.53zm10.16 9.525c-.026.446-.065 1.028.217 1.239.295-.558.347-1.524.257-2.354-.051.013-.09 0-.115-.025-.193.285-.321.657-.36 1.14zm-4.003.718c.295-.334.513-.743.667-1.201-.937-.434-2.604-.384-3.643-.1 1.295.199 2.027.856 2.976 1.301zm-14.548 3.902c-.307.855-.564 1.685-.77 2.626-.063.298-.192.682 0 .954.527-.235.989-.73 1.476-1.14.192-.16.436-.371.731-.619.27-.223.629-.409.667-.681.026-.136-.025-.31-.025-.458-.052-1.363-.077-3.171 0-4.336-.167.21-.41.347-.603.558-.719.792-1.052 1.92-1.476 3.096zm-12.597 1.078c-.038.644.449.941.988.644.244-.136.436-.656.577-.99.475-1.14.962-2.392.924-3.68-.026 0-.039 0-.026-.025 0-.024 0-.037-.026-.024-.59.458-.987 1.053-1.475 1.845-.436.719-.91 1.45-.962 2.23zm-.706-2.663c-.564.693-1.231 1.313-1.821 2.068-.552.719-1.09 1.5-1.565 2.354-.731 1.288-1.116 2.7-1.373 4.46-.09.569-.256 1.176-.218 1.733.077 1.722 1.783.161 2.207-.31 1.398-1.548 2.437-3.257 3.4-5.103-.63.037-1.014.57-1.733.347-.513-.161-.59-.892-.474-1.548.32-1.87 1.988-3.493 2.783-4.77-.051-.012-.051-.049-.09-.061-.025.037-.076.025-.09.062-.346.248-.654.545-1.026.768zM57.24 55.27c.295.037.59-.458.73-.681.617-.93 1.04-1.834 1.374-2.911-1.09-.087-1.591-.731-1.925-1.549-.359.905-.654 2.825-.564 4.15.026.372.115.954.385.991zM6.709 65.75c-1.745.495-3.207 1.176-4.49 2.167-.513.396-1.488 1.078-1.347 1.945.064.446.731.669 1.283.706 1.54.111 2.552-.41 3.746-.83.898-.322 1.719-.743 2.527-1.14.834-.421 1.642-.83 2.399-1.263.795-.459 1.578-.93 2.142-1.549-1.103-.743-3.438-.607-4.952-.371-.449.074-.885.223-1.308.334z" transform="translate(-464 -79) translate(464 79)"/>
        <path d="M34.227 17.726c1.052.284.923 1.498.923 2.935 0 .805-.166 1.697.321 1.92.193.087.462 0 .577.124-.102.173-.397.087-.615.087-.603 0-1.463.05-1.989-.062.039-.174.27-.087.385-.124.5-.173.385-.867.385-1.734 0-1.016.154-2.081-.385-2.478-.795-.185-1.398.236-1.757.645.051.743-.052 2.105-.026 2.873.013.52.282.706.77.768-.103.174-.398.087-.603.087-.603 0-1.463.05-1.989-.062.154-.161.578-.087.732-.248.256-.408.166-.978.166-1.548v-3.406c0-.545.116-1.115-.23-1.45-.206-.037-.424.075-.54 0 .026-.223.488-.285.732-.371.333-.124.654-.26.924-.372.153 1.028.025 2.614.077 3.407.59-.459 1.077-1.289 2.142-.991zM41.345 16.623c-.603-.074-.693-.979-.064-1.115.95-.223.923 1.214.064 1.115zM52.301 16.276c-.27.62-1.334.322-1.09-.433.038-.1.14-.285.423-.335.5-.111.872.322.667.768zM48.607 16.994v.768c.308.075.757.013 1.116.025v.397h-1.09c0 .693-.103 2.328-.026 3.282.039.483.193.892.77.83.333-.037.41-.272.705-.396.077.16-.166.371-.32.52-.295.297-.654.533-1.347.458-1.296-.371-.526-3.22-.731-4.707-.257-.037-.655.075-.796-.062.064-.272.385-.31.577-.433.462-.31.77-.731.963-1.3.012-.026.038-.05.025-.1.026.037.052.037.064.037.167.124.09.421.09.681zM42.18 22.804c-.642 0-1.527.05-2.079-.062.116-.186.321-.062.54-.149.538-.223.346-1.375.346-2.353 0-.694.102-1.685-.231-1.82-.206-.088-.462.11-.578-.026.142-.186.5-.272.77-.371.32-.124.654-.21.924-.335.025 0 .025.037.064.037-.051.533-.026 1.4-.026 2.292 0 .941-.192 2.353.321 2.601.205.062.423-.037.59.1-.064.16-.423.086-.641.086zM52.532 22.804c-.641 0-1.526.05-2.078-.062.115-.173.346-.074.539-.149.205-.086.32-.26.346-.582.077-.718.051-2.18 0-2.935-.013-.248-.103-.57-.192-.62-.193-.124-.488.075-.603-.062.115-.173.449-.26.73-.371.334-.124.655-.199.963-.335.051.446.026 1.462.026 2.379 0 .94-.18 2.242.256 2.502.218.111.45.012.654.148-.064.161-.423.087-.64.087zM60.32 18.692c.64-.297.795-1.115 1.924-.991 1.821.21.923 2.898 1.18 4.46.064.37.449.507.898.52-.052.21-.385.123-.577.123-.616 0-1.489.05-2.015-.062-.05-.198.283-.012.321-.123.59 0 .41-1.09.41-1.821 0-.93.206-2.23-.448-2.416-.629-.173-1.309.273-1.694.706.193.805-.359 3.159.257 3.493.167.087.346-.012.513.124-.103.174-.398.087-.603.087-.603 0-1.462.05-1.988-.062.09-.173.372-.087.539-.149.5-.21.359-1.09.359-1.982 0-.929.128-1.77-.231-2.192-.193-.074-.398.062-.539 0 .039-.248.436-.273.706-.372.32-.123.654-.247.923-.371.039 0 .052.012.064.037v.99zM38.075 17.7v.806c.334-.335.783-.867 1.373-.805.256.024.705.297.577.768-.039.123-.205.285-.385.31-.475.061-.436-.36-.834-.372-.41-.013-.513.384-.731.619.064.756-.077 2.155 0 2.936.051.545.36.656.898.743-.064.16-.423.087-.641.087-.642 0-1.527.05-2.079-.062.103-.174.347-.075.54-.149.525-.223.346-1.127.346-2.106 0-.88.115-1.684-.219-2.068-.218-.037-.423.074-.577 0 .141-.236.5-.273.77-.372.295-.111.59-.235.86-.334H38.074zM46.26 19.348c-.245-.124-.142-.31-.219-.495-.18-.434-.628-.805-1.18-.805-.5 0-1.052.334-.834.99.116.36.667.595 1.09.806.693.347 1.591.817 1.54 1.858-.051.83-.898 1.3-1.886 1.201-.32-.025-.616-.235-.924-.21-.256.012-.192.136-.474.148-.039-.495-.077-1.35 0-1.796.218.05.18.335.218.459.192.557.86 1.337 1.796.99.423-.16.59-.73.256-1.176-.551-.743-2.398-.867-2.373-2.23.013-1.016 1.078-1.61 2.143-1.325.23.062.513.31.872.099-.064.508.115 1.102-.026 1.486zM58.227 22.036c-.026.719-1.821 1.4-1.796.087-.539.235-1 .954-1.988.768-.629-.112-.95-.681-.86-1.388.154-1.263 1.835-1.486 2.848-1.92.128-.953-.192-1.523-.898-1.548-.218-.012-.616.074-.77.273-.192.272.026.78-.166.99-.257.286-.693.075-.77-.061-.064-.124-.051-.483 0-.644.385-1.152 3.31-1.289 3.528.086.09.533 0 1.239 0 1.858.013.607-.09 1.214.14 1.71.386.062.463-.174.732-.21zm-3.515-1.251c-.295.372-.32 1.115.103 1.387.436.285 1.5-.05 1.629-.458.077-.223 0-.62 0-.892 0-.322.051-.632-.064-.867h-.039c-.577.248-1.27.384-1.629.83zM79.408 42.004c.59-.496 1.36-.88 2.117-1.177.436-.173.808-.248 1.283-.334.307-.062 1.09-.384 1.18.061.064.298-.424.768-.642.954-.333.297-.923.644-1.308.743-.334.087-.834.087-1.116.161-.642.137-1.245.52-1.924.545-.296-.396.14-.73.41-.953z" transform="translate(-464 -79) translate(464 79)"/>
    </g>
</svg>
